# xmcd
#
# Track frame offsets:
# 150
# 12983
# 27661
# 38444
# 48164
# 59749
# 70377
# 81333
# 94089
# 107816
# 117526
# 129959
#
# Disc length: 1917 seconds
#
#
# Revision: 0
# Processed by: cddbd v1.4PL0 Copyright (c) Steve Scherf et al.
# Submitted via: FreeRIP 2.35 
#
DISCID=a4077b0c
DTITLE=Various Artist - The Best of Sun COUNTRY
DYEAR=2001
DGENRE=Country
TTITLE0=Folsom Prison-Johnny Cash
TTITLE1=Harper Valley PTA-Jeannie C. Riley
TTITLE2=Who Will The Next Fool Be-Charlie Rich
TTITLE3=Six Days On The Road-Dave Dudley
TTITLE4=Drinking Wine SpoDeeODee-Jerry Lee Lewis
TTITLE5=In The Jailhouse Now-Webb Pierce
TTITLE6=Please Help Me,I'm Fallin'-Hank Locklin
TTITLE7=The Auctioneer-Leroy Van Dyke
TTITLE8=Tennessee Waltz-Patti Page
TTITLE9=Your Gonna Cry-Roy Orbison
TTITLE10=I Walk The Line-Johnny Cash
TTITLE11=You Are My Sunshine-Jimmie Davis
EXTD=
EXTT0=
EXTT1=
EXTT2=
EXTT3=
EXTT4=
EXTT5=
EXTT6=
EXTT7=
EXTT8=
EXTT9=
EXTT10=
EXTT11=
PLAYORDER=
